{"title":"The.Bounty.1984.BRRip.480p.x264.AAC-VYTO [P2PDL]","uid":13097232,"size":508787653,"categoryP":"video","categoryS":"movies","magnet":"?xt=urn:btih:153643aba3ab99d054cef3acdd82d8f3c3b90bc6&amp;dn=The.Bounty.1984.BRRip.480p.x264.AAC-VYTO+%5BP2PDL%5D&amp;tr=udp%3A%2F%2Ftracker.leechers-paradise.org%3A6969&amp;tr=udp%3A%2F%2Fzer0day.ch%3A1337&amp;tr=udp%3A%2F%2Fopen.demonii.com%3A1337&amp;tr=udp%3A%2F%2Ftracker.coppersurfer.tk%3A6969&amp;tr=udp%3A%2F%2Fexodus.desync.com%3A6969","seeders":2,"leechers":3,"uploader":"VYTOP2PDL","files":7,"time":1451150582,"description":"____    ____ ____    ____ .___________.  ______   \r\n     /   /      /   / |           | /  __    \r\n    /   /      /   /  `---|  |----`|  |  |  | \r\n        /     _    _/       |  |     |  |  |  | \r\n       /        |  |         |  |     |  `--'  | \r\n    __/         |__|         |__|      ______/  \r\n                                                  \r\nPresenting Small Encodes with quality for years!\r\n                                                                                                   \r\n                                                                                                   \r\n\r\nThe.Bounty.1984.BRRip.480p.x264.AAC-VYTO\r\n\r\n\r\nGenre:  Action, Adventure, Drama \nhttp://www.imdb.com/title/tt0086993/\r\n\r\n\r\nFormat                                   : MPEG-4\r\nFile size                                : 477 MiB\r\nDuration                                 : 2h 11mn\r\nOverall bit rate                         : 509 Kbps\r\n\r\nVideo\r\nFormat                                   : AVC\r\nBit rate                                 : 474 Kbps\r\nWidth                                    : 720 pixels\r\nHeight                                   : 304 pixels\r\nDisplay aspect ratio                     : 2.35:1\r\nFrame rate mode                          : Constant\r\nFrame rate                               : 23.976 fps\r\nBit depth                                : 8 bits\r\nStream size                              : 444 MiB (93%)\r\nWriting library                          : x264\r\n\r\nAudio\r\nFormat                                   : AAC\r\nBit rate mode                            : Variable\r\nBit rate                                 : 32.0 Kbps\r\nChannel(s)                               : 2 channels \r\nChannel positions                        : Front: L R\r\nSampling rate                            : 48.0 KHz \r\nStream size                              : 30.0 MiB (6%)\r\nLanguage                                 : English\r\n\r\nSubtitle                                 : Yes (English)\r\n\r\nScreen Shots: (Click to  view)\r\n \nhttp://ititli.com/yv \nhttp://ititli.com/yR \nhttp://ititli.com/yy \nhttp://ititli.com/y3 \nhttp://ititli.com/yE \nhttp://ititli.com/yQ \nhttp://ititli.com/yS \nhttp://ititli.com/yZ \nhttp://ititli.com/yc \nhttp://ititli.com/yi \nhttp://ititli.com/yp \nhttp://ititli.com/yD\r\n\r\n----------------------------------------------------------------------------------------------------\r\n\r\n\r\nEncoder Notes: Looking For Early Access To Anything You Can Provide WEBDL, DVDScr, DVDR, BluRay,\r\nDirect Audio, Music Releases and Seedboxes. If You Got anything to offer please contact us.\r\n\r\nSupport us by donating BC - 1FgwdzPsd1y25Gea8wP1qni35uGCtmkRCD \r\n\r\nSend some love!\r\nFind us and join us!","torrent":{"xt":"urn:btih:153643aba3ab99d054cef3acdd82d8f3c3b90bc6","amp;dn":"The.Bounty.1984.BRRip.480p.x264.AAC-VYTO+%5BP2PDL%5D","amp;tr":["udp%3A%2F%2Ftracker.leechers-paradise.org%3A6969","udp%3A%2F%2Fzer0day.ch%3A1337","udp%3A%2F%2Fopen.demonii.com%3A1337","udp%3A%2F%2Ftracker.coppersurfer.tk%3A6969","udp%3A%2F%2Fexodus.desync.com%3A6969"],"infoHash":"153643aba3ab99d054cef3acdd82d8f3c3b90bc6","infoHashBuffer":{"type":"Buffer","data":[21,54,67,171,163,171,153,208,84,206,243,172,221,130,216,243,195,185,11,198]},"announce":[],"urlList":[]}}